<svg xmlns="http://www.w3.org/2000/svg" viewBox="55 55 835 210" role="img" aria-label="Hive Vault Arc icon lockup">
    <defs>
      <mask id="mark-wide-light">
        <rect width="100" height="100" fill="white"/>
        <path d="M 30,13 C 21,19 13,29 32,50 C 50,72 32,86 32,86" fill="none" stroke="black" stroke-width="6.5" stroke-linecap="round"/>
        <path d="M 70,13 C 79,19 87,29 68,50 C 50,72 68,86 68,86" fill="none" stroke="black" stroke-width="6.5" stroke-linecap="round"/>
        <path d="M 32,50 Q 50,43 68,50" fill="none" stroke="black" stroke-width="6.5" stroke-linecap="round"/>
      </mask>
    </defs>
    <g transform="translate(80 80) scale(1.6)">
      <circle cx="50" cy="50" r="47.5" fill="none" stroke="#E8A838" stroke-width="3"/>
      <circle cx="50" cy="50" r="38" fill="#1A2535" mask="url(#mark-wide-light)"/>
    </g><rect x="274" y="86" width="4" height="148" rx="2" fill="#E8A838"/><path d="M166 368L609 368L609 281L166 281ZM598 649L695 649L695 0L598 0ZM79 649L175 649L175 0L79 0Z" transform="translate(312.000 155.000) scale(0.051000 -0.051000)" fill="#0F1C2E"/><path d="M99 649L195 649L195 0L99 0Z" transform="translate(359.666 155.000) scale(0.051000 -0.051000)" fill="#0F1C2E"/><path d="M273 0L20 649L125 649L343 75L313 75L531 649L634 649L383 0Z" transform="translate(382.836 155.000) scale(0.051000 -0.051000)" fill="#0F1C2E"/><path d="M175 281L175 86L593 86L593 0L79 0L79 649L592 649L592 563L175 563L175 365L516 365L516 281Z" transform="translate(424.382 155.000) scale(0.051000 -0.051000)" fill="#0F1C2E"/><path d="" transform="translate(465.869 155.000) scale(0.051000 -0.051000)" fill="#0F1C2E"/><path d="M273 0L20 649L125 649L343 75L313 75L531 649L634 649L383 0Z" transform="translate(485.266 155.000) scale(0.051000 -0.051000)" fill="#0F1C2E"/><path d="M160 161L160 247L508 247L508 161ZM19 0L284 649L386 649L653 0L549 0L317 586L353 586L122 0Z" transform="translate(523.614 155.000) scale(0.051000 -0.051000)" fill="#0F1C2E"/><path d="M577 261L577 649L673 649L673 257Q673 199 658.5 155Q644 111 617 79Q590 47 553.5 27.5Q517 8 472.5 -1.5Q428 -11 378 -11Q326 -11 281 -1.5Q236 8 198.5 27.5Q161 47 134.5 79Q108 111 93.5 155Q79 199 79 257L79 649L175 649L175 261Q175 186 202.5 146Q230 106 276 91Q322 76 378 76Q432 76 477 91Q522 106 549.5 146Q577 186 577 261Z" transform="translate(566.086 155.000) scale(0.051000 -0.051000)" fill="#0F1C2E"/><path d="M175 649L175 86L557 86L557 0L79 0L79 649Z" transform="translate(612.650 155.000) scale(0.051000 -0.051000)" fill="#0F1C2E"/><path d="M17 649L586 649L586 563L17 563ZM253 573L350 573L350 0L253 0Z" transform="translate(648.256 155.000) scale(0.051000 -0.051000)" fill="#0F1C2E"/><path d="" transform="translate(687.205 155.000) scale(0.051000 -0.051000)" fill="#0F1C2E"/><path d="M160 161L160 247L508 247L508 161ZM19 0L284 649L386 649L653 0L549 0L317 586L353 586L122 0Z" transform="translate(706.601 155.000) scale(0.051000 -0.051000)" fill="#0F1C2E"/><path d="M79 0L79 649L413 649Q483 649 533.5 628.5Q584 608 611 566.5Q638 525 638 461Q638 417 623.5 386.5Q609 356 584 336Q559 316 525 305Q491 294 452 291L445 297Q504 295 544 284Q584 273 605.5 244.5Q627 216 627 160L627 0L530 0L530 157Q530 196 517 218Q504 240 472 249Q440 258 382 258L175 258L175 0ZM175 342L413 342Q477 342 509.5 374Q542 406 542 458Q542 508 509.5 535Q477 562 413 562L175 562Z" transform="translate(749.073 155.000) scale(0.051000 -0.051000)" fill="#0F1C2E"/><path d="M698 222Q689 149 648.5 97Q608 45 543 17Q478 -11 395 -11Q320 -11 257.5 12Q195 35 149 78Q103 121 77 183.5Q51 246 51 324Q51 403 77 465Q103 527 149 570.5Q195 614 257.5 637Q320 660 395 660Q479 660 544 631.5Q609 603 649.5 550.5Q690 498 699 425L607 425Q594 472 564 505Q534 538 491 555.5Q448 573 395 573Q327 573 271 544Q215 515 181.5 460Q148 405 148 324Q148 244 181.5 188.5Q215 133 271 104.5Q327 76 395 76Q448 76 490.5 93Q533 110 563 143Q593 176 607 222Z" transform="translate(792.902 155.000) scale(0.051000 -0.051000)" fill="#0F1C2E"/><path d="M17 649L586 649L586 563L17 563ZM253 573L350 573L350 0L253 0Z" transform="translate(312.000 202.000) scale(0.019000 -0.019000)" fill="#536174"/><path d="M175 281L175 86L593 86L593 0L79 0L79 649L592 649L592 563L175 563L175 365L516 365L516 281Z" transform="translate(326.855 202.000) scale(0.019000 -0.019000)" fill="#536174"/><path d="M698 222Q689 149 648.5 97Q608 45 543 17Q478 -11 395 -11Q320 -11 257.5 12Q195 35 149 78Q103 121 77 183.5Q51 246 51 324Q51 403 77 465Q103 527 149 570.5Q195 614 257.5 637Q320 660 395 660Q479 660 544 631.5Q609 603 649.5 550.5Q690 498 699 425L607 425Q594 472 564 505Q534 538 491 555.5Q448 573 395 573Q327 573 271 544Q215 515 181.5 460Q148 405 148 324Q148 244 181.5 188.5Q215 133 271 104.5Q327 76 395 76Q448 76 490.5 93Q533 110 563 143Q593 176 607 222Z" transform="translate(342.621 202.000) scale(0.019000 -0.019000)" fill="#536174"/><path d="M166 368L609 368L609 281L166 281ZM598 649L695 649L695 0L598 0ZM79 649L175 649L175 0L79 0Z" transform="translate(360.271 202.000) scale(0.019000 -0.019000)" fill="#536174"/><path d="M628 106L600 96L600 649L697 649L697 0L600 0L147 541L175 551L175 0L79 0L79 649L175 649Z" transform="translate(378.374 202.000) scale(0.019000 -0.019000)" fill="#536174"/><path d="M398 -11Q297 -11 218.5 30Q140 71 95.5 146Q51 221 51 324Q51 428 95.5 503Q140 578 218.5 619Q297 660 398 660Q500 660 578 619Q656 578 701 503Q746 428 746 324Q746 221 701 146Q656 71 578 30Q500 -11 398 -11ZM398 76Q470 76 526 104Q582 132 615 187Q648 242 648 324Q648 406 615 461Q582 516 526 544.5Q470 573 398 573Q328 573 271 544.5Q214 516 181 461Q148 406 148 324Q148 242 181 187Q214 132 271 104Q328 76 398 76Z" transform="translate(396.512 202.000) scale(0.019000 -0.019000)" fill="#536174"/><path d="M175 649L175 86L557 86L557 0L79 0L79 649Z" transform="translate(415.048 202.000) scale(0.019000 -0.019000)" fill="#536174"/><path d="M398 -11Q297 -11 218.5 30Q140 71 95.5 146Q51 221 51 324Q51 428 95.5 503Q140 578 218.5 619Q297 660 398 660Q500 660 578 619Q656 578 701 503Q746 428 746 324Q746 221 701 146Q656 71 578 30Q500 -11 398 -11ZM398 76Q470 76 526 104Q582 132 615 187Q648 242 648 324Q648 406 615 461Q582 516 526 544.5Q470 573 398 573Q328 573 271 544.5Q214 516 181 461Q148 406 148 324Q148 242 181 187Q214 132 271 104Q328 76 398 76Z" transform="translate(429.392 202.000) scale(0.019000 -0.019000)" fill="#536174"/><path d="M385 -11Q308 -11 246.5 12Q185 35 141 78Q97 121 74 182.5Q51 244 51 319Q51 396 76 458.5Q101 521 147 566.5Q193 612 256 636Q319 660 395 660Q480 660 544.5 631Q609 602 648 549.5Q687 497 694 425L607 425Q594 471 565 504Q536 537 493 555Q450 573 395 573Q320 573 265 540.5Q210 508 179 450.5Q148 393 148 319Q148 246 175.5 191.5Q203 137 256.5 106.5Q310 76 386 76Q445 76 489.5 96.5Q534 117 562.5 154.5Q591 192 602 245L652 251Q637 122 566 55.5Q495 -11 385 -11ZM630 0Q630 32 632.5 73.5Q635 115 638.5 157.5Q642 200 645 234L402 234L402 312L719 312L719 0Z" transform="translate(447.927 202.000) scale(0.019000 -0.019000)" fill="#536174"/><path d="M613 649L366 217L366 0L270 0L270 217L23 649L133 649L343 270L297 270L503 649Z" transform="translate(465.395 202.000) scale(0.019000 -0.019000)" fill="#536174"/><path d="" transform="translate(480.882 202.000) scale(0.019000 -0.019000)" fill="#536174"/><path d="M17 649L586 649L586 563L17 563ZM253 573L350 573L350 0L253 0Z" transform="translate(487.693 202.000) scale(0.019000 -0.019000)" fill="#536174"/><path d="M79 0L79 649L413 649Q483 649 533.5 628.5Q584 608 611 566.5Q638 525 638 461Q638 417 623.5 386.5Q609 356 584 336Q559 316 525 305Q491 294 452 291L445 297Q504 295 544 284Q584 273 605.5 244.5Q627 216 627 160L627 0L530 0L530 157Q530 196 517 218Q504 240 472 249Q440 258 382 258L175 258L175 0ZM175 342L413 342Q477 342 509.5 374Q542 406 542 458Q542 508 509.5 535Q477 562 413 562L175 562Z" transform="translate(502.548 202.000) scale(0.019000 -0.019000)" fill="#536174"/><path d="M160 161L160 247L508 247L508 161ZM19 0L284 649L386 649L653 0L549 0L317 586L353 586L122 0Z" transform="translate(519.222 202.000) scale(0.019000 -0.019000)" fill="#536174"/><path d="M628 106L600 96L600 649L697 649L697 0L600 0L147 541L175 551L175 0L79 0L79 649L175 649Z" transform="translate(535.390 202.000) scale(0.019000 -0.019000)" fill="#536174"/><path d="M35 213L127 213Q130 174 153.5 142.5Q177 111 217.5 93Q258 75 312 75Q359 75 390 88Q421 101 436.5 123.5Q452 146 452 177Q452 208 435 226.5Q418 245 384 257.5Q350 270 300 282Q256 293 213.5 308.5Q171 324 135.5 347Q100 370 78.5 402.5Q57 435 57 481Q57 530 84 570.5Q111 611 163.5 635.5Q216 660 291 660Q407 660 466.5 602Q526 544 524 447L434 447Q431 515 391 544.5Q351 574 287 574Q232 574 193 551.5Q154 529 154 481Q154 460 163 444.5Q172 429 193 416Q214 403 249.5 391Q285 379 338 365Q378 356 415.5 342Q453 328 483 307Q513 286 530.5 253Q548 220 548 172Q548 121 523 79.5Q498 38 445.5 13.5Q393 -11 310 -11Q244 -11 195.5 6Q147 23 114.5 50Q82 77 63.5 108Q45 139 38.5 167Q32 195 35 213Z" transform="translate(553.528 202.000) scale(0.019000 -0.019000)" fill="#536174"/><path d="M592 649L592 563L175 563L175 361L516 361L516 277L175 277L175 0L79 0L79 649Z" transform="translate(568.101 202.000) scale(0.019000 -0.019000)" fill="#536174"/><path d="M398 -11Q297 -11 218.5 30Q140 71 95.5 146Q51 221 51 324Q51 428 95.5 503Q140 578 218.5 619Q297 660 398 660Q500 660 578 619Q656 578 701 503Q746 428 746 324Q746 221 701 146Q656 71 578 30Q500 -11 398 -11ZM398 76Q470 76 526 104Q582 132 615 187Q648 242 648 324Q648 406 615 461Q582 516 526 544.5Q470 573 398 573Q328 573 271 544.5Q214 516 181 461Q148 406 148 324Q148 242 181 187Q214 132 271 104Q328 76 398 76Z" transform="translate(582.677 202.000) scale(0.019000 -0.019000)" fill="#536174"/><path d="M79 0L79 649L413 649Q483 649 533.5 628.5Q584 608 611 566.5Q638 525 638 461Q638 417 623.5 386.5Q609 356 584 336Q559 316 525 305Q491 294 452 291L445 297Q504 295 544 284Q584 273 605.5 244.5Q627 216 627 160L627 0L530 0L530 157Q530 196 517 218Q504 240 472 249Q440 258 382 258L175 258L175 0ZM175 342L413 342Q477 342 509.5 374Q542 406 542 458Q542 508 509.5 535Q477 562 413 562L175 562Z" transform="translate(601.213 202.000) scale(0.019000 -0.019000)" fill="#536174"/><path d="M494 54L453 54L772 649L868 649L868 0L772 0L772 498L793 493L524 0L423 0L154 492L175 497L175 0L79 0L79 649L175 649Z" transform="translate(617.887 202.000) scale(0.019000 -0.019000)" fill="#536174"/><path d="M160 161L160 247L508 247L508 161ZM19 0L284 649L386 649L653 0L549 0L317 586L353 586L122 0Z" transform="translate(639.287 202.000) scale(0.019000 -0.019000)" fill="#536174"/><path d="M17 649L586 649L586 563L17 563ZM253 573L350 573L350 0L253 0Z" transform="translate(654.315 202.000) scale(0.019000 -0.019000)" fill="#536174"/><path d="M99 649L195 649L195 0L99 0Z" transform="translate(669.170 202.000) scale(0.019000 -0.019000)" fill="#536174"/><path d="M398 -11Q297 -11 218.5 30Q140 71 95.5 146Q51 221 51 324Q51 428 95.5 503Q140 578 218.5 619Q297 660 398 660Q500 660 578 619Q656 578 701 503Q746 428 746 324Q746 221 701 146Q656 71 578 30Q500 -11 398 -11ZM398 76Q470 76 526 104Q582 132 615 187Q648 242 648 324Q648 406 615 461Q582 516 526 544.5Q470 573 398 573Q328 573 271 544.5Q214 516 181 461Q148 406 148 324Q148 242 181 187Q214 132 271 104Q328 76 398 76Z" transform="translate(678.147 202.000) scale(0.019000 -0.019000)" fill="#536174"/><path d="M628 106L600 96L600 649L697 649L697 0L600 0L147 541L175 551L175 0L79 0L79 649L175 649Z" transform="translate(696.683 202.000) scale(0.019000 -0.019000)" fill="#536174"/><path d="" transform="translate(714.821 202.000) scale(0.019000 -0.019000)" fill="#536174"/><path d="M157 224L157 308L390 308Q448 308 483.5 343Q519 378 519 435Q519 494 483.5 528Q448 562 390 562L173 562L173 0L77 0L77 649L386 649Q434 649 475.5 635.5Q517 622 548.5 595Q580 568 597.5 528Q615 488 615 435Q615 383 597.5 343Q580 303 548.5 276.5Q517 250 475.5 237Q434 224 386 224Z" transform="translate(722.392 202.000) scale(0.019000 -0.019000)" fill="#536174"/><path d="M160 161L160 247L508 247L508 161ZM19 0L284 649L386 649L653 0L549 0L317 586L353 586L122 0Z" transform="translate(736.941 202.000) scale(0.019000 -0.019000)" fill="#536174"/><path d="M79 0L79 649L413 649Q483 649 533.5 628.5Q584 608 611 566.5Q638 525 638 461Q638 417 623.5 386.5Q609 356 584 336Q559 316 525 305Q491 294 452 291L445 297Q504 295 544 284Q584 273 605.5 244.5Q627 216 627 160L627 0L530 0L530 157Q530 196 517 218Q504 240 472 249Q440 258 382 258L175 258L175 0ZM175 342L413 342Q477 342 509.5 374Q542 406 542 458Q542 508 509.5 535Q477 562 413 562L175 562Z" transform="translate(753.109 202.000) scale(0.019000 -0.019000)" fill="#536174"/><path d="M17 649L586 649L586 563L17 563ZM253 573L350 573L350 0L253 0Z" transform="translate(769.782 202.000) scale(0.019000 -0.019000)" fill="#536174"/><path d="M628 106L600 96L600 649L697 649L697 0L600 0L147 541L175 551L175 0L79 0L79 649L175 649Z" transform="translate(784.638 202.000) scale(0.019000 -0.019000)" fill="#536174"/><path d="M175 281L175 86L593 86L593 0L79 0L79 649L592 649L592 563L175 563L175 365L516 365L516 281Z" transform="translate(802.776 202.000) scale(0.019000 -0.019000)" fill="#536174"/><path d="M79 0L79 649L413 649Q483 649 533.5 628.5Q584 608 611 566.5Q638 525 638 461Q638 417 623.5 386.5Q609 356 584 336Q559 316 525 305Q491 294 452 291L445 297Q504 295 544 284Q584 273 605.5 244.5Q627 216 627 160L627 0L530 0L530 157Q530 196 517 218Q504 240 472 249Q440 258 382 258L175 258L175 0ZM175 342L413 342Q477 342 509.5 374Q542 406 542 458Q542 508 509.5 535Q477 562 413 562L175 562Z" transform="translate(818.577 202.000) scale(0.019000 -0.019000)" fill="#536174"/></svg>
